<svg xmlns="http://www.w3.org/2000/svg" viewBox="0 0 800 800">
    <g stroke-width="3.5" stroke="hsla(215, 16%, 47%, 1)" fill="none">
        <rect width="400" height="400" x="0" y="0" opacity="0.15" />
        <circle r="10.85" cx="0" cy="0" fill="hsla(215, 16%, 47%, 1)" stroke="none" />
        <rect width="400" height="400" x="400" y="0" opacity="0.15" />
        <circle r="10.85" cx="400" cy="0" fill="hsla(215, 16%, 47%, 1)" stroke="none" />
        <rect width="400" height="400" x="800" y="0" opacity="0.15" />
        <circle r="10.85" cx="800" cy="0" fill="hsla(215, 16%, 47%, 1)" stroke="none" />
        <rect width="400" height="400" x="0" y="400" opacity="0.15" />
        <circle r="10.85" cx="0" cy="400" fill="hsla(215, 16%, 47%, 1)" stroke="none" />
        <rect width="400" height="400" x="400" y="400" opacity="0.15" />
        <circle r="10.85" cx="400" cy="400" fill="hsla(215, 16%, 47%, 1)" stroke="none" />
        <rect width="400" height="400" x="800" y="400" opacity="0.15" />
        <circle r="10.85" cx="800" cy="400" fill="hsla(215, 16%, 47%, 1)" stroke="none" />
        <rect width="400" height="400" x="0" y="800" opacity="0.15" />
        <circle r="10.85" cx="0" cy="800" fill="hsla(215, 16%, 47%, 1)" stroke="none" />
        <rect width="400" height="400" x="400" y="800" opacity="0.15" />
        <circle r="10.85" cx="400" cy="800" fill="hsla(215, 16%, 47%, 1)" stroke="none" />
        <rect width="400" height="400" x="800" y="800" opacity="0.15" />
        <circle r="10.85" cx="800" cy="800" fill="hsla(215, 16%, 47%, 1)" stroke="none" />
    </g>
</svg>
